<?xml version="1.0" encoding="UTF-8" standalone="no"?>
<!DOCTYPE svg PUBLIC "-//W3C//DTD SVG 1.1//EN"
 "http://www.w3.org/Graphics/SVG/1.1/DTD/svg11.dtd">
<!-- Generated by graphviz version 14.1.4 (0)
 -->
<!-- Title: G Pages: 1 -->
<svg width="479pt" height="260pt"
 viewBox="0.00 0.00 479.00 260.00" xmlns="http://www.w3.org/2000/svg" xmlns:xlink="http://www.w3.org/1999/xlink">
<g id="graph0" class="graph" transform="scale(1 1) rotate(0) translate(4 256)">
<title>G</title>
<polygon fill="white" stroke="none" points="-4,4 -4,-256 475.16,-256 475.16,4 -4,4"/>
<!-- parse memory -->
<g id="node1" class="node">
<title>parse memory</title>
<ellipse fill="none" stroke="black" cx="64.66" cy="-162" rx="64.66" ry="18"/>
<text xml:space="preserve" text-anchor="middle" x="64.66" y="-156.95" font-family="Times,serif" font-size="14.00">parse memory</text>
</g>
<!-- draw changes -->
<g id="node2" class="node">
<title>draw changes</title>
<ellipse fill="none" stroke="black" cx="220.66" cy="-90" rx="61.59" ry="18"/>
<text xml:space="preserve" text-anchor="middle" x="220.66" y="-84.95" font-family="Times,serif" font-size="14.00">draw changes</text>
</g>
<!-- parse memory&#45;&gt;draw changes -->
<g id="edge1" class="edge">
<title>parse memory&#45;&gt;draw changes</title>
<path fill="none" stroke="black" d="M97.74,-146.15C120.98,-135.73 152.3,-121.67 177.5,-110.36"/>
<polygon fill="black" stroke="black" points="178.82,-113.61 186.51,-106.32 175.95,-107.22 178.82,-113.61"/>
</g>
<!-- get terminal info -->
<g id="node3" class="node">
<title>get terminal info</title>
<ellipse fill="none" stroke="black" cx="220.66" cy="-18" rx="73.36" ry="18"/>
<text xml:space="preserve" text-anchor="middle" x="220.66" y="-12.95" font-family="Times,serif" font-size="14.00">get terminal info</text>
</g>
<!-- draw changes&#45;&gt;get terminal info -->
<g id="edge2" class="edge">
<title>draw changes&#45;&gt;get terminal info</title>
<path fill="none" stroke="black" d="M214.74,-71.7C213.99,-64.41 213.75,-55.73 214.01,-47.54"/>
<polygon fill="black" stroke="black" points="217.5,-47.82 214.66,-37.61 210.52,-47.36 217.5,-47.82"/>
</g>
<!-- get terminal info&#45;&gt;draw changes -->
<g id="edge7" class="edge">
<title>get terminal info&#45;&gt;draw changes</title>
<path fill="none" stroke="black" d="M226.55,-36.1C227.31,-43.37 227.57,-52.04 227.31,-60.24"/>
<polygon fill="black" stroke="black" points="223.82,-59.98 226.67,-70.19 230.81,-60.43 223.82,-59.98"/>
</g>
<!-- parse command -->
<g id="node4" class="node">
<title>parse command</title>
<ellipse fill="none" stroke="black" cx="305.66" cy="-234" rx="70.29" ry="18"/>
<text xml:space="preserve" text-anchor="middle" x="305.66" y="-228.95" font-family="Times,serif" font-size="14.00">parse command</text>
</g>
<!-- chose stack/heap -->
<g id="node5" class="node">
<title>chose stack/heap</title>
<ellipse fill="none" stroke="black" cx="220.66" cy="-162" rx="73.36" ry="18"/>
<text xml:space="preserve" text-anchor="middle" x="220.66" y="-156.95" font-family="Times,serif" font-size="14.00">chose stack/heap</text>
</g>
<!-- parse command&#45;&gt;chose stack/heap -->
<g id="edge3" class="edge">
<title>parse command&#45;&gt;chose stack/heap</title>
<path fill="none" stroke="black" d="M285.51,-216.41C274.8,-207.58 261.42,-196.57 249.61,-186.84"/>
<polygon fill="black" stroke="black" points="252.06,-184.33 242.12,-180.67 247.61,-189.73 252.06,-184.33"/>
</g>
<!-- chose refresh time -->
<g id="node6" class="node">
<title>chose refresh time</title>
<ellipse fill="none" stroke="black" cx="391.66" cy="-162" rx="79.5" ry="18"/>
<text xml:space="preserve" text-anchor="middle" x="391.66" y="-156.95" font-family="Times,serif" font-size="14.00">chose refresh time</text>
</g>
<!-- parse command&#45;&gt;chose refresh time -->
<g id="edge5" class="edge">
<title>parse command&#45;&gt;chose refresh time</title>
<path fill="none" stroke="black" d="M326.04,-216.41C336.88,-207.58 350.41,-196.57 362.36,-186.84"/>
<polygon fill="black" stroke="black" points="364.41,-189.7 369.95,-180.67 359.99,-184.27 364.41,-189.7"/>
</g>
<!-- chose stack/heap&#45;&gt;draw changes -->
<g id="edge4" class="edge">
<title>chose stack/heap&#45;&gt;draw changes</title>
<path fill="none" stroke="black" d="M220.66,-143.7C220.66,-136.41 220.66,-127.73 220.66,-119.54"/>
<polygon fill="black" stroke="black" points="224.16,-119.62 220.66,-109.62 217.16,-119.62 224.16,-119.62"/>
</g>
<!-- chose refresh time&#45;&gt;draw changes -->
<g id="edge6" class="edge">
<title>chose refresh time&#45;&gt;draw changes</title>
<path fill="none" stroke="black" d="M354.55,-145.81C328.54,-135.16 293.61,-120.86 265.95,-109.54"/>
<polygon fill="black" stroke="black" points="267.34,-106.33 256.76,-105.78 264.69,-112.81 267.34,-106.33"/>
</g>
</g>
</svg>
