<?xml version="1.0" encoding="UTF-8" standalone="no"?>
<!DOCTYPE svg PUBLIC "-//W3C//DTD SVG 1.1//EN"
 "http://www.w3.org/Graphics/SVG/1.1/DTD/svg11.dtd">
<!-- Generated by graphviz version 14.1.4 (0)
 -->
<!-- Title: G Pages: 1 -->
<svg width="296pt" height="188pt"
 viewBox="0.00 0.00 296.00 188.00" xmlns="http://www.w3.org/2000/svg" xmlns:xlink="http://www.w3.org/1999/xlink">
<g id="graph0" class="graph" transform="scale(1 1) rotate(0) translate(4 184)">
<title>G</title>
<polygon fill="white" stroke="none" points="-4,4 -4,-184 291.95,-184 291.95,4 -4,4"/>
<!-- draw view -->
<g id="node1" class="node">
<title>draw view</title>
<ellipse fill="none" stroke="black" cx="64.66" cy="-162" rx="49.82" ry="18"/>
<text xml:space="preserve" text-anchor="middle" x="64.66" y="-156.95" font-family="Times,serif" font-size="14.00">draw view</text>
</g>
<!-- parse memory -->
<g id="node2" class="node">
<title>parse memory</title>
<ellipse fill="none" stroke="black" cx="64.66" cy="-90" rx="64.66" ry="18"/>
<text xml:space="preserve" text-anchor="middle" x="64.66" y="-84.95" font-family="Times,serif" font-size="14.00">parse memory</text>
</g>
<!-- draw view&#45;&gt;parse memory -->
<g id="edge1" class="edge">
<title>draw view&#45;&gt;parse memory</title>
<path fill="none" stroke="black" d="M64.66,-143.7C64.66,-136.41 64.66,-127.73 64.66,-119.54"/>
<polygon fill="black" stroke="black" points="68.16,-119.62 64.66,-109.62 61.16,-119.62 68.16,-119.62"/>
</g>
<!-- draw changes -->
<g id="node3" class="node">
<title>draw changes</title>
<ellipse fill="none" stroke="black" cx="140.66" cy="-18" rx="61.59" ry="18"/>
<text xml:space="preserve" text-anchor="middle" x="140.66" y="-12.95" font-family="Times,serif" font-size="14.00">draw changes</text>
</g>
<!-- parse memory&#45;&gt;draw changes -->
<g id="edge2" class="edge">
<title>parse memory&#45;&gt;draw changes</title>
<path fill="none" stroke="black" d="M82.67,-72.41C92.13,-63.69 103.91,-52.85 114.38,-43.21"/>
<polygon fill="black" stroke="black" points="116.68,-45.84 121.66,-36.5 111.94,-40.7 116.68,-45.84"/>
</g>
<!-- parse command -->
<g id="node4" class="node">
<title>parse command</title>
<ellipse fill="none" stroke="black" cx="217.66" cy="-90" rx="70.29" ry="18"/>
<text xml:space="preserve" text-anchor="middle" x="217.66" y="-84.95" font-family="Times,serif" font-size="14.00">parse command</text>
</g>
<!-- parse command&#45;&gt;draw changes -->
<g id="edge3" class="edge">
<title>parse command&#45;&gt;draw changes</title>
<path fill="none" stroke="black" d="M199.41,-72.41C189.82,-63.69 177.89,-52.85 167.29,-43.21"/>
<polygon fill="black" stroke="black" points="169.65,-40.63 159.9,-36.49 164.94,-45.8 169.65,-40.63"/>
</g>
</g>
</svg>
