<?xml version="1.0" encoding="UTF-8" standalone="no"?>
<!DOCTYPE svg PUBLIC "-//W3C//DTD SVG 1.1//EN"
 "http://www.w3.org/Graphics/SVG/1.1/DTD/svg11.dtd">
<!-- Generated by graphviz version 14.1.4 (0)
 -->
<!-- Title: G Pages: 1 -->
<svg width="137pt" height="188pt"
 viewBox="0.00 0.00 137.00 188.00" xmlns="http://www.w3.org/2000/svg" xmlns:xlink="http://www.w3.org/1999/xlink">
<g id="graph0" class="graph" transform="scale(1 1) rotate(0) translate(4 184)">
<title>G</title>
<polygon fill="white" stroke="none" points="-4,4 -4,-184 133.32,-184 133.32,4 -4,4"/>
<!-- draw view -->
<g id="node1" class="node">
<title>draw view</title>
<ellipse fill="none" stroke="black" cx="64.66" cy="-162" rx="49.82" ry="18"/>
<text xml:space="preserve" text-anchor="middle" x="64.66" y="-156.95" font-family="Times,serif" font-size="14.00">draw view</text>
</g>
<!-- parse memory -->
<g id="node2" class="node">
<title>parse memory</title>
<ellipse fill="none" stroke="black" cx="64.66" cy="-90" rx="64.66" ry="18"/>
<text xml:space="preserve" text-anchor="middle" x="64.66" y="-84.95" font-family="Times,serif" font-size="14.00">parse memory</text>
</g>
<!-- draw view&#45;&gt;parse memory -->
<g id="edge1" class="edge">
<title>draw view&#45;&gt;parse memory</title>
<path fill="none" stroke="black" d="M64.66,-143.7C64.66,-136.41 64.66,-127.73 64.66,-119.54"/>
<polygon fill="black" stroke="black" points="68.16,-119.62 64.66,-109.62 61.16,-119.62 68.16,-119.62"/>
</g>
<!-- draw changes -->
<g id="node3" class="node">
<title>draw changes</title>
<ellipse fill="none" stroke="black" cx="64.66" cy="-18" rx="61.59" ry="18"/>
<text xml:space="preserve" text-anchor="middle" x="64.66" y="-12.95" font-family="Times,serif" font-size="14.00">draw changes</text>
</g>
<!-- parse memory&#45;&gt;draw changes -->
<g id="edge2" class="edge">
<title>parse memory&#45;&gt;draw changes</title>
<path fill="none" stroke="black" d="M64.66,-71.7C64.66,-64.41 64.66,-55.73 64.66,-47.54"/>
<polygon fill="black" stroke="black" points="68.16,-47.62 64.66,-37.62 61.16,-47.62 68.16,-47.62"/>
</g>
</g>
</svg>
