<?xml version="1.0" encoding="UTF-8" standalone="no"?>
<!DOCTYPE svg PUBLIC "-//W3C//DTD SVG 1.1//EN"
 "http://www.w3.org/Graphics/SVG/1.1/DTD/svg11.dtd">
<!-- Generated by graphviz version 14.1.5 (0)
 -->
<!-- Title: G Pages: 1 -->
<svg width="332pt" height="492pt"
 viewBox="0.00 0.00 332.00 492.00" xmlns="http://www.w3.org/2000/svg" xmlns:xlink="http://www.w3.org/1999/xlink">
<g id="graph0" class="graph" transform="scale(1 1) rotate(0) translate(4 488)">
<title>G</title>
<polygon fill="white" stroke="none" points="-4,4 -4,-488 327.86,-488 327.86,4 -4,4"/>
<g id="clust1" class="cluster">
<title>cluster_group</title>
<polygon fill="none" stroke="black" points="54.36,-8 54.36,-348 236.36,-348 236.36,-8 54.36,-8"/>
</g>
<!-- parse command -->
<g id="node1" class="node">
<title>parse command</title>
<ellipse fill="none" stroke="black" cx="158.36" cy="-466" rx="70.29" ry="18"/>
<text xml:space="preserve" text-anchor="middle" x="158.36" y="-460.95" font-family="Times,serif" font-size="14.00">parse command</text>
</g>
<!-- chose stack/heap out -->
<g id="node2" class="node">
<title>chose stack/heap out</title>
<ellipse fill="none" stroke="black" cx="73.36" cy="-394" rx="73.36" ry="18"/>
<text xml:space="preserve" text-anchor="middle" x="73.36" y="-388.95" font-family="Times,serif" font-size="14.00">chose stack/heap</text>
</g>
<!-- parse command&#45;&gt;chose stack/heap out -->
<g id="edge1" class="edge">
<title>parse command&#45;&gt;chose stack/heap out</title>
<path fill="none" stroke="black" d="M138.22,-448.41C127.5,-439.58 114.12,-428.57 102.31,-418.84"/>
<polygon fill="black" stroke="black" points="104.77,-416.33 94.82,-412.67 100.32,-421.73 104.77,-416.33"/>
</g>
<!-- chose refresh time -->
<g id="node3" class="node">
<title>chose refresh time</title>
<ellipse fill="none" stroke="black" cx="244.36" cy="-394" rx="79.5" ry="18"/>
<text xml:space="preserve" text-anchor="middle" x="244.36" y="-388.95" font-family="Times,serif" font-size="14.00">chose refresh time</text>
</g>
<!-- parse command&#45;&gt;chose refresh time -->
<g id="edge2" class="edge">
<title>parse command&#45;&gt;chose refresh time</title>
<path fill="none" stroke="black" d="M178.74,-448.41C189.59,-439.58 203.11,-428.57 215.07,-418.84"/>
<polygon fill="black" stroke="black" points="217.11,-421.7 222.65,-412.67 212.69,-416.27 217.11,-421.7"/>
</g>
<!-- draw changes -->
<g id="node4" class="node">
<title>draw changes</title>
<ellipse fill="none" stroke="black" cx="158.36" cy="-322" rx="61.59" ry="18"/>
<text xml:space="preserve" text-anchor="middle" x="158.36" y="-316.95" font-family="Times,serif" font-size="14.00">draw changes</text>
</g>
<!-- chose stack/heap out&#45;&gt;draw changes -->
<g id="edge3" class="edge">
<title>chose stack/heap out&#45;&gt;draw changes</title>
<path fill="none" stroke="black" d="M93.5,-376.41C101.23,-370.05 110.33,-362.56 119.23,-355.22"/>
<polygon fill="black" stroke="black" points="121.34,-358.02 126.84,-348.96 116.89,-352.61 121.34,-358.02"/>
</g>
<!-- chose refresh time&#45;&gt;draw changes -->
<g id="edge4" class="edge">
<title>chose refresh time&#45;&gt;draw changes</title>
<path fill="none" stroke="black" d="M223.98,-376.41C216.16,-370.05 206.96,-362.56 197.95,-355.22"/>
<polygon fill="black" stroke="black" points="200.21,-352.55 190.24,-348.95 195.79,-357.98 200.21,-352.55"/>
</g>
<!-- get hotkey -->
<g id="node7" class="node">
<title>get hotkey</title>
<ellipse fill="none" stroke="black" cx="143.36" cy="-250" rx="49.82" ry="18"/>
<text xml:space="preserve" text-anchor="middle" x="143.36" y="-244.95" font-family="Times,serif" font-size="14.00">get hotkey</text>
</g>
<!-- draw changes&#45;&gt;get hotkey -->
<g id="edge7" class="edge">
<title>draw changes&#45;&gt;get hotkey</title>
<path fill="none" stroke="black" d="M154.65,-303.7C153.07,-296.32 151.19,-287.52 149.41,-279.25"/>
<polygon fill="black" stroke="black" points="152.86,-278.63 147.34,-269.58 146.01,-280.1 152.86,-278.63"/>
</g>
<!-- parse memory -->
<g id="node5" class="node">
<title>parse memory</title>
<ellipse fill="none" stroke="black" cx="139.36" cy="-106" rx="64.66" ry="18"/>
<text xml:space="preserve" text-anchor="middle" x="139.36" y="-100.95" font-family="Times,serif" font-size="14.00">parse memory</text>
</g>
<!-- get terminal info -->
<g id="node6" class="node">
<title>get terminal info</title>
<ellipse fill="none" stroke="black" cx="145.36" cy="-34" rx="73.36" ry="18"/>
<text xml:space="preserve" text-anchor="middle" x="145.36" y="-28.95" font-family="Times,serif" font-size="14.00">get terminal info</text>
</g>
<!-- parse memory&#45;&gt;get terminal info -->
<g id="edge5" class="edge">
<title>parse memory&#45;&gt;get terminal info</title>
<path fill="none" stroke="black" d="M140.84,-87.7C141.47,-80.41 142.21,-71.73 142.91,-63.54"/>
<polygon fill="black" stroke="black" points="146.4,-63.87 143.76,-53.61 139.42,-63.28 146.4,-63.87"/>
</g>
<!-- get terminal info&#45;&gt;draw changes -->
<g id="edge6" class="edge">
<title>get terminal info&#45;&gt;draw changes</title>
<path fill="none" stroke="black" d="M175.84,-50.73C189.83,-59.66 205.1,-72.22 213.36,-88 228.22,-116.4 216.47,-127.96 217.36,-160 218.7,-208.44 223.4,-224.35 202.36,-268 197.55,-277.97 190.47,-287.65 183.39,-295.96"/>
<polygon fill="black" stroke="black" points="180.92,-293.48 176.83,-303.26 186.12,-298.16 180.92,-293.48"/>
</g>
<!-- chose stack/heap in -->
<g id="node8" class="node">
<title>chose stack/heap in</title>
<ellipse fill="none" stroke="black" cx="135.36" cy="-178" rx="73.36" ry="18"/>
<text xml:space="preserve" text-anchor="middle" x="135.36" y="-172.95" font-family="Times,serif" font-size="14.00">chose stack/heap</text>
</g>
<!-- get hotkey&#45;&gt;chose stack/heap in -->
<g id="edge8" class="edge">
<title>get hotkey&#45;&gt;chose stack/heap in</title>
<path fill="none" stroke="black" d="M141.38,-231.7C140.55,-224.41 139.56,-215.73 138.62,-207.54"/>
<polygon fill="black" stroke="black" points="142.1,-207.15 137.49,-197.61 135.14,-207.94 142.1,-207.15"/>
</g>
<!-- chose stack/heap in&#45;&gt;parse memory -->
<g id="edge9" class="edge">
<title>chose stack/heap in&#45;&gt;parse memory</title>
<path fill="none" stroke="black" d="M136.35,-159.7C136.76,-152.41 137.26,-143.73 137.73,-135.54"/>
<polygon fill="black" stroke="black" points="141.22,-135.8 138.3,-125.62 134.23,-135.4 141.22,-135.8"/>
</g>
</g>
</svg>
